<?xml version="1.0" standalone="no"?>
<!DOCTYPE svg PUBLIC "-//W3C//DTD SVG 20010904//EN"
 "http://www.w3.org/TR/2001/REC-SVG-20010904/DTD/svg10.dtd">
<svg version="1.0" xmlns="http://www.w3.org/2000/svg"
 width="100.000000pt" height="100.000000pt" viewBox="0 0 100.000000 100.000000"
 preserveAspectRatio="xMidYMid meet">

<g transform="translate(0.000000,100.000000) scale(0.100000,-0.100000)"
fill="#000000" stroke="none">
<path d="M653 925 l-73 -34 0 -67 0 -66 23 14 c12 8 53 32 90 52 l68 38 -3 47
c-2 31 -8 46 -18 48 -8 1 -48 -13 -87 -32z"/>
<path d="M740 805 c-52 -30 -99 -56 -105 -58 -9 -4 92 -117 105 -117 12 0 120
204 116 217 -8 19 -12 17 -116 -42z"/>
<path d="M812 670 l-50 -90 65 0 64 0 35 77 c19 42 33 82 30 90 -3 8 -22 13
-50 13 l-44 0 -50 -90z"/>
<path d="M515 678 c-38 -23 -72 -43 -74 -45 -7 -6 183 -193 192 -190 5 1 26
34 47 73 l39 70 -67 66 -67 67 -70 -41z"/>
<path d="M271 469 l-124 -131 96 -96 95 -95 129 122 c70 68 130 127 132 133 4
12 -178 198 -194 198 -5 0 -66 -59 -134 -131z"/>
<path d="M88 283 c-53 -58 -62 -114 -28 -171 52 -86 159 -94 230 -18 l24 27
-94 94 c-52 52 -97 95 -100 95 -4 0 -18 -12 -32 -27z"/>
</g>
</svg>
